<svg xmlns="http://www.w3.org/2000/svg" viewBox="0 0 273.94 37.69"><defs><style>.cls-1{fill:#fff;}.cls-2{fill:#aae0f3;}</style></defs><g id="Calque_2" data-name="Calque 2"><g id="Calque_4" data-name="Calque 4"><path class="cls-1" d="M0,29.48H3.82c0,3.43,2.32,5.41,6.33,5.41s6.28-1.55,6.28-4.11c0-3.33-3.38-3.91-7-4.59C5.32,25.47.73,24.65.73,19.62c0-4.2,3.52-6.81,9.42-6.81s9.42,2.9,9.42,7.92H15.75c0-3.28-2-5.17-5.6-5.17S4.59,17,4.59,19.38c0,2.7,3.05,3.28,6.43,3.86,4.3.78,9.28,1.7,9.28,7.2,0,4.55-3.77,7.25-10.15,7.25S0,34.65,0,29.48Z"/><path class="cls-1" d="M31.07,16.24v14c0,2.66,1.6,4.21,4.35,4.21a7.83,7.83,0,0,0,3.43-.78v3.1a11.68,11.68,0,0,1-4.68,1c-4.45,0-7.06-2.65-7.06-7.25V16.24H23.24V13.29H27.4V5h4V7a6.94,6.94,0,0,1-3.77,6.18v.1H39.24v2.95Z"/><path class="cls-1" d="M64.12,13.29V37.21h-4V29h-.09c0,5.47-3,8.7-7.88,8.7-5.32,0-8.41-3.52-8.41-9.52V13.29h4V28c0,4.06,2.13,6.43,5.85,6.43,4.16,0,6.57-3,6.57-8.12v-13Z"/><path class="cls-1" d="M93.31,0V37.21h-4V29.33h-.1c0,5.22-3.33,8.36-8.84,8.36-6.38,0-10.15-4.64-10.15-12.46S74,12.81,80.41,12.81c5.51,0,8.84,3.09,8.84,8.31h.1V0ZM89.64,25.23c0-5.66-2.8-9.19-7.68-9.19s-7.64,3.43-7.64,9.19,2.8,9.18,7.64,9.18S89.64,30.88,89.64,25.23Z"/><path class="cls-1" d="M100.8,2.9h4V8h-4Zm0,10.39h4V37.21h-4Z"/><path class="cls-1" d="M110.8,25.23c0-7.78,4.4-12.42,11.75-12.42s11.69,4.64,11.69,12.42-4.35,12.46-11.69,12.46S110.8,33.05,110.8,25.23Zm19.43,0c0-5.76-2.85-9.19-7.68-9.19s-7.69,3.43-7.69,9.19,2.85,9.18,7.69,9.18S130.23,31,130.23,25.23Z"/><path class="cls-2" d="M138.78,25.18c0-7.88,4.45-12.52,11.94-12.52,6.09,0,10.15,3.24,11.26,8.8h-4.79a6.38,6.38,0,0,0-6.47-4.88c-4.45,0-7,3.18-7,8.6s2.56,8.6,7,8.6c3.43,0,5.75-1.93,6.57-5.36h4.83c-1,5.89-5.12,9.27-11.4,9.27C143.23,37.69,138.78,33.05,138.78,25.18Z"/><path class="cls-2" d="M166,25.18c0-7.88,4.49-12.52,12-12.52s12,4.64,12,12.52-4.44,12.51-12,12.51S166,33.05,166,25.18Zm19.13,0c0-5.42-2.61-8.6-7.1-8.6s-7.1,3.18-7.1,8.6,2.61,8.6,7.1,8.6S185.12,30.59,185.12,25.18Z"/><path class="cls-2" d="M195.75,0h4.84V37.21h-4.84Z"/><path class="cls-2" d="M207.64,2.66h4.83V8.12h-4.83Zm0,10.48h4.83V37.21h-4.83Z"/><path class="cls-2" d="M243.21,25.18c0,7.87-3.72,12.51-10,12.51-5.46,0-8.74-3.19-8.74-8.5h-.1v8h-4.83V0h4.83V21.17h.1c0-5.32,3.28-8.51,8.74-8.51C239.49,12.66,243.21,17.3,243.21,25.18Zm-4.93,0c0-5.42-2.61-8.6-7.11-8.6S224,20,224,25.18s2.66,8.6,7.15,8.6S238.28,30.59,238.28,25.18Z"/><path class="cls-2" d="M265.29,13.39l-1.45,4.49a7.29,7.29,0,0,0-3.48-.87c-4.16,0-6.57,3.24-6.57,8.75V37.21H249V13.14h4.83v9.43h.09c0-6.24,2.86-9.91,7.69-9.91A9.55,9.55,0,0,1,265.29,13.39Z"/><path class="cls-2" d="M269.11,2.66h4.83V8.12h-4.83Zm0,10.48h4.83V37.21h-4.83Z"/></g></g></svg>