<?xml version="1.0" encoding="utf-8"?><svg xmlns="http://www.w3.org/2000/svg" xmlns:xlink="http://www.w3.org/1999/xlink"><symbol viewBox="0 0 256 512" id="angle-down" xmlns="http://www.w3.org/2000/svg"><path d="M119.5 326.9L3.5 209.1c-4.7-4.7-4.7-12.3 0-17l7.1-7.1c4.7-4.7 12.3-4.7 17 0L128 287.3l100.4-102.2c4.7-4.7 12.3-4.7 17 0l7.1 7.1c4.7 4.7 4.7 12.3 0 17L136.5 327c-4.7 4.6-12.3 4.6-17-.1z"/></symbol><symbol viewBox="0 0 192 512" id="angle-left" xmlns="http://www.w3.org/2000/svg"><path d="M25.1 247.5l117.8-116c4.7-4.7 12.3-4.7 17 0l7.1 7.1c4.7 4.7 4.7 12.3 0 17L64.7 256l102.2 100.4c4.7 4.7 4.7 12.3 0 17l-7.1 7.1c-4.7 4.7-12.3 4.7-17 0L25 264.5c-4.6-4.7-4.6-12.3.1-17z"/></symbol><symbol viewBox="0 0 192 512" id="angle-right" xmlns="http://www.w3.org/2000/svg"><path d="M166.9 264.5l-117.8 116c-4.7 4.7-12.3 4.7-17 0l-7.1-7.1c-4.7-4.7-4.7-12.3 0-17L127.3 256 25.1 155.6c-4.7-4.7-4.7-12.3 0-17l7.1-7.1c4.7-4.7 12.3-4.7 17 0l117.8 116c4.6 4.7 4.6 12.3-.1 17z"/></symbol><symbol viewBox="0 0 264 512" id="facebook" xmlns="http://www.w3.org/2000/svg"><path d="M215.8 85H264V3.6C255.7 2.5 227.1 0 193.8 0 124.3 0 76.7 42.4 76.7 120.3V192H0v91h76.7v229h94V283h73.6l11.7-91h-85.3v-62.7c0-26.3 7.3-44.3 45.1-44.3z"/></symbol><symbol viewBox="0 0 496 496" id="info-circle" xmlns="http://www.w3.org/2000/svg"><path d="M248 0C111 0 0 111.08 0 248s111 248 248 248 248-111 248-248S385 0 248 0zm0 110a42 42 0 11-42 42 42 42 0 0142-42zm56 254a12 12 0 01-12 12h-88a12 12 0 01-12-12v-24a12 12 0 0112-12h12v-64h-12a12 12 0 01-12-12v-24a12 12 0 0112-12h64a12 12 0 0112 12v100h12a12 12 0 0112 12z"/></symbol><symbol viewBox="0 0 448.25 448.15" id="instagram" xmlns="http://www.w3.org/2000/svg"><path d="M224.18 109.18a114.9 114.9 0 10114.89 114.89 114.71 114.71 0 00-114.89-114.89zm0 189.6a74.7 74.7 0 1174.69-74.7 74.83 74.83 0 01-74.69 74.7zm146.39-194.3a26.8 26.8 0 11-26.79-26.8 26.74 26.74 0 0126.79 26.8zm76.11 27.2c-1.71-35.9-9.9-67.7-36.21-93.9s-58-34.41-93.9-36.2c-37-2.11-147.89-2.11-184.89 0-35.81 1.7-67.6 9.89-93.9 36.1s-34.41 58-36.21 93.89c-2.09 37-2.09 147.9 0 184.9 1.7 35.9 9.9 67.71 36.21 93.9s58 34.4 93.9 36.2c37 2.11 147.89 2.11 184.89 0 35.9-1.7 67.71-9.89 93.9-36.2s34.4-58 36.21-93.9c2.1-37 2.1-147.8 0-184.8zm-47.81 224.5a75.63 75.63 0 01-42.6 42.6c-29.5 11.7-99.5 9-132.1 9s-102.7 2.6-132.1-9a75.63 75.63 0 01-42.6-42.6c-11.7-29.5-9-99.5-9-132.11s-2.6-102.7 9-132.1a75.63 75.63 0 0142.6-42.6c29.5-11.7 99.5-9 132.1-9s102.7-2.6 132.1 9A75.63 75.63 0 01398.87 92c11.7 29.5 9 99.5 9 132.1s2.7 102.67-9 132.08z"/></symbol><symbol viewBox="0 0 448.1 448" id="linkedin" xmlns="http://www.w3.org/2000/svg"><path d="M100.3 448H7.4V148.9h92.9zM53.8 108.1C24.1 108.1 0 83.5 0 53.8a53.8 53.8 0 01107.6 0c0 29.7-24.1 54.3-53.8 54.3zM448 448h-92.7V302.4c0-34.7-.7-79.2-48.3-79.2-48.3 0-55.7 37.7-55.7 76.7V448h-92.8V148.9h89.1v40.8h1.3c12.4-23.5 42.7-48.3 87.9-48.3 94 0 111.3 61.9 111.3 142.3V448z"/></symbol><symbol id="logo-laniche" viewBox="0 0 44.09 47.4" xmlns="http://www.w3.org/2000/svg"><defs><clipPath id="hclip-path"><path class="hcls-1" d="M0 0h44.09v47.4H0z"/></clipPath><style>.hcls-1{fill:none}.cls-2{clip-path:url(#hclip-path)}</style></defs><path d="M10.16 47.4H0V21.23a31.08 31.08 0 011.61-10.61A15 15 0 0114.21.27a25.61 25.61 0 017.21 0A14.27 14.27 0 0024 .1c4.2-.31 8.28.09 12 2.3a15 15 0 016.42 8.09 30.75 30.75 0 011.66 10.72v26.17H33.93v-.78-26.89a21.7 21.7 0 00-2.13-9.59 13.77 13.77 0 00-9.41-7.55 1.52 1.52 0 00-.73 0C16.21 4 12.92 7.55 11.28 12.76a28.6 28.6 0 00-1.12 8.68v25.14zm6.37-45.2a16.47 16.47 0 00-6.33 1.64 14.25 14.25 0 00-6.76 8.08A27.41 27.41 0 002 21.42v24h6.16v-.77-23.4a33 33 0 01.9-8.34 16.69 16.69 0 015.47-9.22c.64-.52 1.33-1 2-1.46m11.13 0l.44.3a14 14 0 014.69 4.83 23.65 23.65 0 013.1 12.12c.08 8.38 0 16.77 0 25.15v.76h6.16v-.83-22.83a40.91 40.91 0 00-.45-6 16.2 16.2 0 00-5.14-10.15 14.26 14.26 0 00-8.8-3.35"/></symbol><symbol viewBox="0 0 256.05 448.13" id="long-arrow-down" xmlns="http://www.w3.org/2000/svg"><path d="M252.53 311l-7.1-7.1a12 12 0 00-17 0L145 387.8V12a12 12 0 00-12-12h-10a12 12 0 00-12 12v375.9L27.63 304a12 12 0 00-17 0l-7.1 7.1a12 12 0 000 17l116 116.5a12 12 0 0017 0l116-116.6a12 12 0 000-17z"/></symbol><symbol viewBox="0 0 448.13 256.05" id="long-arrow-left" xmlns="http://www.w3.org/2000/svg"><path d="M137.13 252.53l7.1-7.1a12 12 0 000-17L60.33 145h375.8a12 12 0 0012-12v-10a12 12 0 00-12-12H60.23l83.9-83.4a12 12 0 000-17L137 3.53a12 12 0 00-17 0l-116.5 116a12 12 0 000 17l116.6 116a12 12 0 0017.03 0z"/></symbol><symbol viewBox="0 0 448 256" id="long-arrow-right" xmlns="http://www.w3.org/2000/svg"><path d="M311 3.5l-7.1 7.1c-4.7 4.7-4.7 12.3 0 17l83.9 83.4H12c-6.6 0-12 5.4-12 12v10c0 6.6 5.4 12 12 12h375.9L304 228.4c-4.7 4.7-4.7 12.3 0 17l7.1 7.1c4.7 4.7 12.3 4.7 17 0l116.5-116c4.7-4.7 4.7-12.3 0-17L328 3.5c-4.7-4.7-12.3-4.7-17 0z"/></symbol><symbol viewBox="0 0 256.05 448.13" id="long-arrow-up" xmlns="http://www.w3.org/2000/svg"><path d="M3.53 137.13l7.1 7.1a12 12 0 0017 0L111 60.33v375.8a12 12 0 0012 12h10a12 12 0 0012-12V60.23l83.39 83.9a12 12 0 0017 0l7.11-7.1a12 12 0 000-17l-116-116.5a12 12 0 00-17 0l-116 116.6a12 12 0 00.03 17z"/></symbol><symbol viewBox="0 0 496 496" id="times-circle" xmlns="http://www.w3.org/2000/svg"><path d="M248 0C111 0 0 111 0 248s111 248 248 248 248-111 248-248S385 0 248 0zm121.6 313.1a12 12 0 010 17L330 369.6a12 12 0 01-17 0L248 304l-65.1 65.6a12 12 0 01-17 0L126.4 330a12 12 0 010-17l65.6-65-65.6-65.1a12 12 0 010-17l39.6-39.6a12 12 0 0117 0l65 65.7 65.1-65.6a12 12 0 0117 0l39.6 39.6a12 12 0 010 17L304 248z"/></symbol><symbol viewBox="0 0 512 415.84" id="twitter" xmlns="http://www.w3.org/2000/svg"><path d="M459.37 103.63c.33 4.55.33 9.1.33 13.65 0 138.72-105.59 298.56-298.56 298.56A296.51 296.51 0 010 368.73 218 218 0 0025.34 370a210.15 210.15 0 00130.27-44.8 105.13 105.13 0 01-98.11-72.77 132.94 132.94 0 0019.82 1.62 111.09 111.09 0 0027.61-3.57 105 105 0 01-84.14-103v-1.3a105.68 105.68 0 0047.43 13.32A105.07 105.07 0 0135.74 19.17 298.27 298.27 0 00252.1 129a118.63 118.63 0 01-2.6-24 105 105 0 01181.6-71.86A206.58 206.58 0 00497.7 7.8a104.59 104.59 0 01-46.13 57.82A210.28 210.28 0 00512 49.38a225.4 225.4 0 01-52.63 54.25z"/></symbol></svg>